<svg version="1.2" xmlns="http://www.w3.org/2000/svg" width="683" height="259"><style>.s0{fill:#323945}</style><g id="Layer 1"><g id="&lt;Group&gt;"><path id="&lt;Compound Path&gt;" fill-rule="evenodd" class="s0" d="M654.4 109.3c0 3.5-2.5 5.3-5.8 5.3H641v-18h7.3c3.8 0 5.9 2 5.9 5.2 0 2.1-1.5 3.1-2.1 3.5.8.5 2.3 1.4 2.3 4zm-9.4-5.7h3c1.2 0 1.6-.8 1.6-1.5s-.4-1.5-1.6-1.5h-3zm4.9 5.5c0-.8-.4-1.5-1.7-1.5H645v3h3.2c1.3 0 1.7-.7 1.7-1.5z"/><path id="&lt;Path&gt;" class="s0" d="m666.5 96.6-2.9 6.7-2.9-6.7h-5l5.3 10.7v7.3h5v-7.3l5.4-10.7z"/><path class="s0" d="M322.7 209.9c-.6.2-1.3.2-1.9 0-3.2-.9-6.4-.9-9.7-1-.7-.1-1.5-.1-2.2.2-1.4.4-2.7.4-4.1-.1-1-.4-2.2-.4-3.3-.6-.9-.1-1.9.2-2.6-.2-1.2-.7-2.4-.5-3.6-.2-1.3-.5-2.6-1-3.3-1.3-5.5-.9-10.4-.4-15.3-1.6-.5.2-1 .8-1.7.2-.2-.7-.5-1.4-.9-2.2-1.8-.1-3.5-.2-5.1-.2-.8-1-1.5-1.7-2.3-2.5-2.2.7-4.2.9-6.3-.1-1-.5-2.2-.3-3.3-.4-.6-.1-1.2-.1-1.8-.2-.2-.5-.5-.9-.5-1.2-.1-1.4-.1-2.7-.1-3.8 1-2.3 2.5-4 3.2-6.2l-2.6-2.6c-.9.1-1.9.2-2.6.2-1.5 1.1-1.8 2.5-1.4 3.8.8 2.3.5 4.5.3 6.8-1 1.4-1.5 3-1.9 4.8-.4 2.3-.4 4.7-1.4 7-.4.7-.4 1.9-.2 2.8.5 2.4.2 5.1 1.4 7.4 1.3 1.3 2.9 1.4 4.6 1.4q5.8-.1 11.7-.3c1.6-.1 3.2-.1 4.8-.1 1.9-1 3.8-2 5.7-3.1-3-3-3.2-3.6-2-6.1.7 0 1.4-.1 2.1-.1 5.7.2 11.3.7 16.9.1 1-.1 2.2.4 3.8.8 5.2-1.6 6.8-1.6 11.6-.6 1.1.3 2.3.3 3.4.2 2.3-.3 4.7-.4 7-.2s4.6.2 6.8.3c1.1.1 1.1 0 2.9-1.4-2.2 0-4.2-.6-6.1.3z"/><path class="s0" d="M298.7 217.7c-6.8-.9-13.5-1.1-20.3-1 3.4.4 6.7.9 10.1 1 3.4.2 6.8 0 10.2 0zm71.1.4c-1.4 0-2.1 0-3-.1.9.8 1.6.4 3 .1zm-4.3-.1-.2.8.1.1c.1-.2.2-.5.3-.7zm-42.5-.1q.5.1.9.1v-.2q-.4 0-.9-.1v.2zm-22.3.1h-.1q-.1 0-.1.1h.2v-.1zm0 0c.4-.1.7-.1 1.4-.2-.8-.4-1.2-.4-1.4.2zm67.2-4v.2q.5 0 .9.1 0-.1.1-.2-.5-.1-1-.1zm3.2.2h-.2v.2zm1.4.2q.1-.1.2-.3-.2 0-.4.1l.2.2zm-1.9 3.9.3.1-.1-.3zm-70.4.1q.2-.1.3-.3h-.2c0 .1 0 .2-.1.3zm10.5.5.3.1-.1-.3zM124.6 70v-.1l-.1-.1z"/><path fill-rule="evenodd" class="s0" d="M99.8 215.2c.6 1.2 1 2.3 1.6 3.5-.3.8-.4 1.7-.8 2.4-.9 1.4-2 2.8-1.8 4.5-1.1.4-1.8.7-2.5 1-3.4-.3-6.5-.9-9-3.2-5.9-.7-11.6-3.5-17.7-3.2-1.5-.6-3.2-1.3-5-2-.8-.8-1.7-1.7-2.3-2.4q-.3-.6-.3-.9c-.1-3.6.5-7.1 2-10.4 1.1-2.5 1.4-5.4 2.4-8 1.2-3.4 2.7-6.8 4.1-10.2.7-1.6 1.5-3.3 2.1-5 .5-1.7 1.7-2.9 2-4.7.3-1.2 1.4-2.2 2-3.4.9-1.8 1.5-3.6 2.3-5.4q.4-.8.8-1.5l44.7-141.7h10.7c-2-1.5-2.9-1.5-6.6-.7-.6-1.7-1.3-3.4-2-5.2.3-1.1.7-2.2 1.1-3.4.7-2.7 1.5-5.5 2.3-8.2.3-1.2.8-2.3 2.5-2.7 2.8.1 5.6 1.4 8.3 2 1 .2 2.2.7 3 1.3 2.1 1.6 4.8 2.5 7.2 3.8 1.8.9 3.4 1.9 4.7 3.2 1.9.8 3.8 1.7 5.8 2.2h.1q.7.2 1.5.3c1.4.2 2.9 1 3.7 2.5-.1.5-.2 1.2-.4 1.9-1.1.3-2.2.5-3.3.7q-.8-.4-1.5-1c-.6 1.4-1.5 2.5-2.7 3.4-1.3 6.2-3.7 11.7-5.3 17.4-.8.8-1.5 1.6-2.3 2.4-.7 2.7-1.2 5.5-.9 8.6.1.8 0 1.6-.1 2.3-.7 3.5-1.4 6.9-2.1 10.5q-.9.4-1.8.7c.4 1-.3 1.8-.2 2.7-.5-.3-1.1-.7-1.4-.9-1 0-.8.8-1.3 1.1-.1-.2-.3-.3-.4-.5-.4-2.2-.6-4.4-.1-6.6.3-1.4.3-3 .1-4.6-.2-.8-.1-1.7-.1-2.6.4-.5.8-1 1.2-1.6-.1-.3-.2-.8-.4-1.4 1.1-1.8.6-4.3 1.6-6.5-.2-.4-.5-1.1-.7-1.7.8-4.5 1.1-7.1 1.1-8.9 3.2-5.7 7.1-11.9 11.2-17.5-1.2-.4-2.5-1-3.9-1.4-.4-.1-.9-.1-1.5-.1-.2.3-.4.7-.6 1.1-.4.8-.4 1.7-1.2 2.2-1.6 1-1.8 2.6-1.6 4.3-1 .2-1.9.4-3.1.7-.4 1-.9 2.2-1.4 3.4-1-.1-1.8-.1-2.6-.2-.8.2-.2.8-.2 1.2-.7.9-1.3 2-1.8 3.1-.3.9-.4 1.8-.4 2.7-1.2 1.8-1.5 3.9-2.2 5.8-1.7 5.2-3.2 10.5-4.8 15.7-.2.8-.1 1.8-1 2.3-.4.1-.6.6-.6.9.3 2.7-1.6 4.8-1.4 7.5 0 .5-.3 1-.4 1.4-.5 1.7-1.5 3.2-1 5-1.2 2.8-1.2 6-2.4 8.8-1.3 3-1.8 6.3-2.3 9.5-.1.5-.1 1-.3 1.5-.9 2-1.7 4-1.6 6.3 0 .8-.4 1.5-.7 2.1-.7 1.7-1.8 3.2-1.2 5.3-1.1 2.3-.7 5.1-1.9 7.4-.5.9-.5 2.1-.8 3.2-.1.3 0 .8-.2 1-1.4 1.3-1.8 2.9-1.8 4.7 0 1.6-1.2 2.9-1 4.7.2 1.2-1.2 2.1-.5 3.5-1.3 1.4-2.2 3-2.2 4.9 0 2-.8 3.8-1.5 5.6-.9 2.3-1.2 4.7-1.7 7.1-.2.6-.1 1.3-.4 1.8-1.2 2-.8 4.2-.3 6.4 0 .2.1.3.4.6 1.3.9 3.1 1.4 4.7 2 3.5-.2 6.9-.3 8.7-3.7.2 1.2.3 1.9.4 2.8-1.4 1-1.8 2.6-2.6 4.2-1.6 3.4-2.2 7.2-4.5 10.4-.9 1.2-1.1 2.9-1.5 4.4-.6 2.2-1.7 4.1-3.2 5.7.2 1.9-.3 3.5-1 5.1q-1.7 4.2-3.5 8.4c-.1.2-.3.4-.3.7-.2 5-2.6 9.3-3.6 14-.2 1.2-.4 2.5-.6 3.6zm44.7-149.1c-.1-.1-.3-.3-.4-.3-.1 0-.3.1-.5.2.2.1.3.3.4.3.2.1.3-.1.5-.2zm-32.7 26.7q-.2-2.4-.4-4.7l-1.7 4.5q.1 0 .1.1l-.1-.1-.3.8c.7-.2 1.6-.4 2.4-.6zm18.8-53.3c.3-.5.6-.8.7-1.3q.1-.5.2-1.1zm-1.7 4.3-17.1 43.5 1.7-1.7q.8.1 2.2.3c2.4-2 1-5.4 2.6-7.7q-.2-2-.3-3.8c1.6-4 3.2-7.9 5.1-12.6.1 1.8.1 2.8.2 4-1.4.9-1.8 2.6-2.2 4.2.2.6.4 1.3.6 1.8q-.4 1.3-.8 2.4c1.1.7 1.8.5 2.8.3.8-1.1 1.1-2.6 1.3-4 .1-.1-.1-.3-.3-.5.7-1.5 1.5-3 2.4-4.9.1-.9.1-2.3.6-3.5.4-1.2.3-2.6.9-3.8q1.6-3.3 2.1-7c.2-2.1.6-4.3 1.7-5.9.5-.7.6-1.5.7-2.3q-.2.3-.5.5c-.6.4-.6 1.2-.9 1.7-.4.7-.7 1.5-1.4 2.1-.8.8-1.2 1.7-1 2.8.1.6-.1 1.1-.3 1.6-.8 2.3-1.6 4.5-3.3 6.4-.3.3-.5.8-.4 1.3.5 1.7-.5 2.8-1 4.3-1.2-1.7-1.2-1.7-.9-2.5.6-1.6 1.1-3.1 1.9-4.6.7-1.6 1.1-3.3 1.4-5 .1-.8.4-1.6.9-2.3 2-2.6 2.4-3.9 2.2-7.3zm-33 85.3v-1.2l-11.2 28.7c1.8-2.9 3.3-5.9 4.5-9.1.4-.9 1-1.7 1.7-2.8 0-.3-.1-1.1.1-1.8q.7-2.8 1.6-5.5c.7-1.8 1-3.8 2.5-5.2.9-.8.8-1.9.8-3.1zm3.6-7.2c-.3-3.1 1.2-5.7 2.4-8.3.8-1.7 1.6-3.4 1.7-5.2l-6 15.2c.5-.6 1.1-1.1 1.9-1.7z"/><path fill-rule="evenodd" class="s0" d="M632.5 124.8v1.1c-.2.8-.5 1.6-.6 2.5-.1.8-.1 1.7-.1 2.8-.4 1.2-.9 2.5-1.3 3.9-.5 1.4-1 2.8-.9 4.3.1.9 0 2-.7 2.8-.8.8 0 2.2-1 2.9.2 2.7.4 5.4.6 8.4-.8 1.9-.8 1.9-3 3.6-.3.6-.5 1.4-1 1.9-1.8 2.2-3.6 4.3-5.5 6.4-1.4 1.7-3.3 2.6-5.5 2.4h-2.2c-2.2-.9-4.3-1.8-6.5-2.7-1.4-.5-3-.1-4.3-1-.3-.3-.8-.5-1.3-.6-.6 0-1.2.2-2 .3-2.6-1.1-5.5-1.9-8.5-2.6-1.2-.2-2.3-.7-3.4-1l-4.2-4.2q-.3-2.8-.6-5.1c.4-3.1.8-6 1.1-8.9.3-2.2.4-4.4.7-6.6.1-.7.5-1.3.8-2.2-.6-.5-1.2-1.1-2.1-1.8-.7.8-1.3 1.6-2 2.3-.6.7-1.4 1.3-2.4 2.3-.3 2.1-2.4 3.3-4.1 4.9-1.4 3.4-4.1 6-6.3 9-.1.7-.1 1.5-.4 2.1-2.2 3-2.9 6.7-4.2 10.1-.1.5-.3.9-.4 1.5-1.1.4-2.1.9-3.1 1.1-2 .5-3.7-.5-5.2-1.5-2.4-1.5-2.3-1.6-4.9-2.2-.2-.3-.4-.6-.5-.9-.1-.2-.1-.5-.2-.7 0-.1-.1-.2-.2-.3q-1.2-.4-2.4-.7c-2.4.6-4.6 1.7-6.9 1.4-.8-.9-.2-1.4-.1-2 .9-4.9 2-9.8 1.9-14.9-.1-1.3.4-2.6.5-4q.1-5.1.1-10.3c0-2.1-.5-4.1-1.4-6 0-.1-.2-.2-.3-.2-.2 0-.5 0-.6.1q-1.4 1.4-2.8 2.9c-1.8 2-3.6 4-5.5 6-1.1 1.1-2.4 2-3.7 2.9-1.1 1.2-1.7 2.7-3.2 3.5-.4.2-.7.7-1 1.1-1.6 2-3.4 3.9-4.7 6.1-1.4 2.2-3.1 4.1-4.5 6.3-1.3 2.1-2.4 4.3-3.5 6.4-.4 1.9.6 3.7-.4 5.7-1.2.7-2.6 1.4-4 2.1-3.5-.3-6-2.6-9-4.3-.4.2-1 .5-1.7.8-.9-.5-2-1.1-2.9-1.6-2.6 1-2.6 1-4.6.1-1.8-.8-3.6-1.6-5.5-2.5 2.2-4.3 2.2-8.9 2.8-13.3.6-3.8.7-7.6.9-11.4.2-2.3.3-4.6-.4-6.9-.5-1.6-.2-3.5-.4-5.2 0-.4-.2-.9-.3-1.4-.5.1-1 .1-1.2.3-.7 1.2-1.7 2-2.7 2.9-2.7 2.4-4.7 5-7.3 8.7-.7 1.2-1.5 2.3-2.5 3.2-1.7 1.5-3 3.3-4.1 5.2-1.2 2.1-2.7 3.8-4.6 5.1-.1.8-.3 1.6-.4 2.4-1.4 1.6-2.3 3.7-4.1 5-1.3 2.5-2.7 5-3.8 7.6-.8 1.8-1.5 3.6-2.9 5.1-.9.3-1.8.6-3 .9-1.1-.3-2.4-.8-3.9-1.3-3.7.5-7.5-.3-11.2-1.7-1-.4-1.9-1.1-3.1-.7-.3.1-.7-.1-1.1-.3-1.1-.4-2.2-1-3.5-1.5 0-.6-.1-1.2-.2-1.7-.1-6.1.2-12.1-.4-18.1 0-.1-.1-.2-.1-.3.7-3.1.3-6.2.9-9.2.5-2.7.2-5.4.3-8.1 0-.6-.4-1.1-1.4-1.1-.4.5-1.3 1-1.5 1.8-.6 1.9-2 3.3-3.1 4.8s-1.8 3.1-3 4.5c-.2.2-.4.4-.5.6-1.6 3.9-4 7.2-6.6 10.6-.7.8-1.1 1.9-1.7 2.8-.8 1.2-1.6 2.5-2.6 4-.2 1.8-.7 4 .4 6.3-.3.8-.6 1.7-.9 2.6-1.6.5-3.1 1-4.8 1.6-1.8.2-3.7-.1-5.7-.4-3.1-.5-6.3-.7-10-1.1-.8-.5-2-1.2-3.5-2 .5-.7.9-1.3 1.4-2 .2-1.5.1-3.1-1.1-4.4-2.6 1.4-4.2 3.8-6 5.9-1.2 1.6-2.8 3-3.7 4.8q0 .1.1.2c.3.6.9 1.1 1.4 1.7.6.7 1.4 1.4 1.8 2.3 1.4 2.9 3.4 5.3 5.3 7.9 1 1.3 1.6 2.8 2.5 4.4 1.5 1.4 3.2 2.9 4.5 4.9.9 1.6 1.7 3.3 3.2 4.5.6.5.8 1.5 1.4 2.4.7.6 1.8 1.3 2.5 2.2 2.9 4 6.3 7.6 9.7 11.4 1.4.5 3.3.3 4.3 1.6 1.7-.1 3.5-.4 5.2-.6.5-.1 1-.2 1.5-.2 2.2.1 4.5.3 6.7-.5.7-.2 1.5-.1 2.3-.1 1.8.2 3.7.6 5.5-.4 2.7.3 5.2-.9 7.9-.6 1.1.2 2.2-.1 3.3-.2.4 0 .9-.3 1.2-.1 1.7.7 3.3.6 5.1.1 1.6-.5 3.2.2 4.9-.5 1.1-.5 2.5.4 3.6-.6 1.8.7 3.6 1 5.6.5 1.9-.6 3.9-.5 5.9-.5 2.5.1 5-.3 7.5-.5.6-.1 1.2-.4 1.8-.2 2.4.5 4.4-.6 6.4-1.6.1 0 .2-.2.4-.5.4-1.3.3-2.9.3-4.4-1.5-2.8-2.8-5.6-6.7-6.1 1.2-.6 1.8-.8 2.6-1.2 1.5.9 3.2.8 5 1 3.9.4 7.8-.2 11.7.7 1.5.4 3.2.1 4.8.1q3.5-.2 6.6 1c1.8-.7 3.5-.8 5.3-.7q4.7.3 9.4.5c.3 0 .5.1.8.1 4.9-1.2 9.9-.6 14.9-1.1 1.2-.1 2.5-.3 3.6-.5 1-.8 1.9-1.5 2.9-2.3.9 0 1.8-.2 2.6 0 1.7.4 3.4.8 5 .2l1.8 1.8c.9 2.8 1.4 5.5.1 8.3 1.4 5 .7 10.5 3.1 15.4 0 1.5-.1 3.1-.2 4.7-.5 1-1 1.9-1.4 2.6-.4.3-.6.5-.9.6-3.5 1-7 1.6-10.7 1.3-2.9-.3-5.8.3-8.6.3-3.8-.1-7.6-.4-11.4-.6-1.8 0-3.7-.3-5.6-.2-1.8 0-3.4-.6-5.2-.4-1.3.2-2.7-.5-4.1-.7-2-.2-4-.2-6-.3-1.3-.1-2.5-.4-3.8-.6-.4 0-1-.2-1.4 0-1.8.5-3.6.1-5.2-.4-4.3-1.1-8.6-1.6-13-1.7-1 0-2-.4-3.3-.6-.3.1-1 .4-1.7.5q-3 .2-6 .1c-2 0-4 .3-5.9-.5-1.1-.5-2.2-.1-3.3.2-3.4 1.1-5 .8-8.2-.9-3 1.1-6 .6-9 .4-2-.2-4-.4-6 .2-.6.1-1.2.1-1.9.1q-5.8-.2-11.7-.5c-.7 0-1.5-.1-2.4-.1-.5-.6-1-1.3-1.5-2-1.7.6-3.4 1.2-4.9 1.8-.9-.4-1.7-.7-2.7-1.1-.5.7-1.1 1.2-1.9 1.7-3 1.7-5.3 4.2-7.7 6.7-1.3 1.3-2.6 2.6-3.7 4-.6.8-.9 1.8-1.3 2.7-2 1.2-4 2.4-6.6 2.4-.4-.5-.8-1.1-1.3-1.6-.6-.5-1.3-.7-1.9-1.2-.7-.6-1.5-1.2-2-2-2.2-3.3-5-6.2-7.4-9.3q-1.5-1.9-3-4l-.1.1q0-.1.1-.2l-2.6-3.6q-.2 0-.5.1c-2.1.3-4.3.6-6.3.2-1.9-.4-3.5.5-5.2.3-1.8-.2-3.5.1-5.3.2-.6 0-1.3.1-1.9.1-3.9-.1-7.8-.2-11.7-.4-2.4-.2-4.8-.4-7 .5-.8-.4-1.5-.8-2.2-1.1.1-.2.1-.5.3-.5.6-.2 1.2-.6 1.8-.6 3.1.3 6.2-.4 9.4-.4 3.2-.1 6.5.6 9.7-.4 2.1.5 4.3.2 6.4.2 3.7 0 7.4-.2 11.1-.3-1.8-2.5-3.4-5.1-5.1-7.7-2.6-4-5.2-8.1-7.7-12.1-.3-.4-.5-.9-.8-1.2-1.5-1.3-2.4-3-3.1-4.6-1.6-3.9-4.1-7.2-6.5-10.6-.5-.6-.7-1.5-1.2-2.5-2.1-.9-3-3.3-4.5-5.2-1.5-1.8-3-3.6-3.9-6q-1.7-1.5-3.9-3.6c-.4-1.1-1.5-2.1-1.9-3.4-.8 4.1-1.6 8.2-2.3 12.4-.3 2-.3 4.1.2 6.2-.2.4-.4.9-.7 1.6-.4-.7-.9-1.1-.9-1.6 0-3.3-.5-6.5.6-9.9-.3-.5-.6-1.4-.9-1.4h-1.9c-.2 0-.4 0-.6.2-.4.6-1 .9-1.3 1.6-.5 1.7-1.8 2.8-3 4.1-.5.2-1.1.4-1.8.7-.9 1.3-1.8 2.8-3.3 3.6-.6 1-1.2 1.9-1.8 2.9q-3.5.3-7.1.5-2.5-1.9-4.8-3.8c-.3-2.7-.1-5 .9-7.4 1.1-2.5 1.7-5.1 2.6-7.7-.6-1 .1-2.1.1-3.1-.1-2 .4-3.7 1.2-4.8.4-2.3.7-4.1 1.1-5.9.6-3.4 1.4-6.8 1.7-10.1.4-3.4.9-6.8.3-10.2 0-.2-.2-.4-.3-.5-.3 0-.6.1-.7.2-2.4 2.7-5.5 4.5-8.2 6.9q-2.9 2.5-5.7 5.1c-2.9 2.7-5.7 5.4-8.5 8.2-1.5 1.5-3 2.9-4.1 4.7-1 1.4-2.4 2.4-4 4-1.4 2.4-2.4 5.5-4 8.4.2.5.4.9.7 1.6-.7 1.2-1.5 2.5-2.3 3.9-.9-.2-1.7-.4-2.7-.6-.6.2-1.2.6-1.9.7-.6.1-1.3 0-1.9 0-1-.5-1.9-1.1-3-1.8-.9-2.6-3.4-3.8-5.3-6q-.8.3-1.7.6c-1.1-.4-2.2-.8-2.9-2-.5-.7-1.5-1.2-2.3-1.7-1-.6-2-1-3.1-1.5.6-1.4 1.2-2.6 1.7-3.8-.1-.7-.3-1.3-.3-2-.1-.6 0-1.3.1-1.9 1.8-1.7 1.3-4.4 2.8-6.2 0-2.4.1-4.7 1.2-6.9.1-.2.2-.5.2-.7-.4-3.2.9-6.3.8-9.5 0-3.3.4-6.5 1.4-9.7.1-.3 0-.7 0-1-.7-.2-1 .4-1.2.7-1.5 2.6-3.6 4.7-5.7 6.8-3.3 3.3-6.6 6.7-9.8 10.1-2.4 2.6-4.6 5.6-6.9 8.4-.5.5-1-.1-1.4 1.9h-1.3c-.1 0-.3-.1-.5.1-1.2 1.8-2.3 3.4-3.8 5q-.4.5-.7 1c-.4 2.9-.8 5.9-1.3 8.8-.9 4.2-1.4 8.5-2.1 12.7.6.6.7 0 .8-.1.2-.1.3-.3.4-.5 2.7-5.2 6.1-10.1 9.1-15.2.5-.9.9-2.1 2.2-2.4-.1.4 0 .8-.2 1.1-2.3 3.5-4.3 7.2-6.4 10.9-1 1.6-1.8 3.3-2.6 5-.2.6-.5 1.2-.9 1.6-1.3 1.3-1.7 3.1-2.4 4.8-.9 2-1.5 4.2-2.6 6.1q-.2.4-.4.9c-.3 1-.7 2-1 3-.7 2.7-1.4 5.4-1.7 8.2-.3 2.5-.4 5.2-.5 7.8v.6c1-3.8 5.3-18.1 4.6-15.5.4 2.2-.6 4.2-.6 6.4 0 2.1-.3 4.1-.6 6.1 0 .3-.2.5-.4.7 0 .9-.1 1.7-.2 2.9.1.2.3.8.5 1.4q-.4.8-.8 1.7c.7 1.3.2 2.9 1.1 4.3.2.9.5 1.8.8 2.6h-.1c-.6 1.7-1.2 3.1-2.5 4.1-8.5-.5-11.7-1.6-17.6-4.4-.8-1-3.8-2.3-6.4-3.2-.9-.8-1.2-1.2-1.6-2l-3.6-3c-1.2-.1-2.4-.1-3.7-1 .2-3 .1-6.2.8-9.2.6-2.6.9-5.2 1.2-7.8-1.3 5.1-4.1 14.2-3.6 11.5.8-3.4 1.4-7 2.2-10.4.4-1.7.6-3.4.9-5.5.1-.2.5-.7.9-1.2.4-.8 1.1-1.6.6-2.7.7-1.7.4-3.7 1.5-5.2.5-.7.9-1.7.6-2.8-.2-.4 0-.9.1-1.3 1.2-2.6 1.2-5.4.8-7.9.7-2.5 1.3-4.7 1.9-6.8.2-.7.2-1.5.9-1.9-.2-1 .2-1.9.3-2.8.1-1 0-2 .3-2.9.1-.8.4-1.6.1-2.6-.2-.8.1-1.7.1-2.5.1-2 .2-4 1.3-5.6.2-.3.3-.5.4-.9.4-1.8.3-3.9 1.4-5.5.1-.2 0-.5 0-.7.1-1.7.1-3.5.3-5.8.2-.8.7-2.1 1-2.9.4-7.7 1.6-14.7 3.5-21.9-.2-4.2-.2-4.2 1.7-13.2-.3-.6-.7-1.3-1.1-2.2-.7-.2-1.4-.5-2.1-.7-1.3 2.6-2.7 5.2-4 7.7q-1 2.1-2.1 4.2c-.6 1.2-.9 2.5-1.7 3.4-1.5 1.7-2.3 3.8-3.1 5.9-.5 1.1-.9 2.1-1.7 3-1 .9-1.2 2.2-1.4 3.6-1.3 1.4-2.1 3.2-2.8 5.1-.8 2.3-1.9 4.5-3.1 6.6-1.6 3-2.5 6.3-3.7 9.5-.4 1.1-.8 2.2-1.5 3.1-1.3 1.7-2.3 3.5-2.5 5.8 0 .8-.5 1.6-.8 2.4-.6 1.8-1.8 3.3-1.7 5.4-1 2.7-1.5 5.6-2.5 8.2-.7 1.7-1.1 3.5-1.7 5.2-1.2 2.8-2 5.8-2.6 8.9-.6 2.8-1.5 5.5-1.8 8.5-.1.9-.2 1.9-.4 2.9-.2.8-.4 1.6-.6 2.5-1.2.6-2.4 1.2-3.5 1.7-.9 0-1.8.1-2.7 0-.6 0-1.2-.2-1.9 0-1.5.4-2.9 0-4.3-.8-2.9-1.8-6-3.3-8.6-5.5q-1.4-1.2-2.8-2.2c-.4-.3-.9-.4-1.4-.6-.5.4-1 .9-1.7 1.6q-1.1-.4-2.5-.8-1-1.2-2-2.5-2.8-.7-5.7-1.4c-.4-.5-.9-1-1.4-1.6-.2.5-.4 1-.6 1.7-.2-1.3-.3-2.3-.4-3.5.3-.1.6-.3.9-.2 1.6.4 3 0 4.7-.3.7-1 1.5-2.2 2.3-3.3l-.7-2.1c.7-.7 1.5-.4 2.2-.1 1.2-.5 1-1.8 1.4-2.7 1.4-1.5 1.4-1.5 2-3.5-.1-.9-1-1.9-.2-2.8-.4-3 1.3-5.4 1.2-8.3 1.4-1.9 1.1-4.6 2.1-6.7.1-.2-.1-.6-.2-1.1.5-.2 1-.4 1.6-.7.4 1 .8 2.1 1.2 3.2.5.3 1 .6 1.6.9.5-.4 1.1-.7 1.4-1.2 1.8-3.7 3.8-7.3 5.4-11.1 1-2.4 1.9-5 3.7-7 1-1.1 1.5-2.7 2.4-4.7.6-.6 1.6-1.7 2.9-3 .6-2.6 1.3-5.5 2-8.6 1.4-1.1 2.3-2.7 3-4.5.6-1.5.7-3.2 2.3-4.1l1.6-3.8c.5-1.1 1-2.3 1.6-3.4.4-.7 1-1.3 1.7-2.3.3-2 1.8-3.9 2-6.4 0-.4.4-.9.8-1.3.4-.5.7-1 .8-1.7 0-.5.4-1 .8-1.3 1.1-.7 1.3-1.8 1.3-3.1.9-1.1 1.8-2.3 2.8-3.6.4-1.3.7-2.9 1.6-4.3.8-1.3 1.5-2.7 2.4-3.9 1.2-1.6 2.2-3.3 3.1-5.1.8-1.7 1.7-3.2 3.4-4-.1-.4-.2-.7-.4-1.3 1.1-1.1 1.6-2.8 2.3-4.3.9-2 2.1-3.6 3.3-5.4 1.9-3.2 3.9-6.3 5.8-9.4.6-1 1.2-2.1 2.3-2.8.1-1.4 1-2.5 1.7-3.6.9-1.7 2-3.2 3-4.8.4-.7.8-1.5 1.1-2.2 1.2.1 1.5 1.2 2.2 1.8q.9.2 2.1.3l1.7 1.7c.7-.1 1.4-.3 2.1-.4.8 0 1.5.1 2.6.1.4-.3 1-.9 1.6-1.4h1c.4.1.7.4 1 .3 2.4-.1 4.3 1.3 6.2 2.7.7.5 1.3 1.1 2.3.7q-.1-.4-.2-.9c.2 0 .5-.2.6-.1 1.3.5 2.5 1.2 3.9 1.3.7.1 1.7.4 2.2.9 1.5 1.7 3.4 2 5.3 2.4 1.4.3 2.7.6 3.9 1.3.5.3.9.7 1.4 1.1-.1.7-.2 1.3-.3 2.1.4.4.9 1 1.4 1.4.7.6 1.5 1.1 2.1 1.6-.1 1-.1 1.9-.2 2.7-.2 1.4-.4 2.8-1.3 3.9-.4.5-.6 1.2-.8 1.8-1.6 4.9-3.3 9.9-4.9 14.9-.4 1.4-.6 2.9-1.3 4.2-.1.2-.2.4-.2.6.2 2.6-.8 4.7-1.5 6.9-1 3.2-1 6.7-2.4 9.7-.3 2.5-1.4 4.7-1.6 7.2-.1 1.1-.4 2.1-.7 3.1-1 2.9-1.3 5.9-1.8 8.9-.4 2-.7 4-1.6 5.8-.7 1.5-1 3.2-1 5-.1 2.5-.6 4.9-1.3 7.3-.6 1.9-1.4 3.8-1.5 5.8-.2 3-1.3 5.7-1.5 8.6-.2 2.7-1.1 5.1-1.1 7.8q0 1-.1 2 3.6-4.9 7.1-9.8c1.1-1.4 2.7-2.4 3.5-4.1 2.1-1.5 3.3-3.7 4.8-5.6 2.7-3.6 5.7-7.1 8.3-10.8 1.3-1.8 2.8-3.4 4.5-4.9.5.1 1 .2 1.6.3.2-.9.4-1.9.6-2.9l-.9-1.2c.2-.3.3-.8.5-1.2 3.1-.9 5.9.1 8.7.9.2.3.5.5.7.8 2.2-.6 4.3-.7 6.5.1.8.3 1.8 0 2.5.3 1.9.8 4.1.5 6 1.5 1.7.9 3.8 1 5.7 1.6.6.1 1.1.5 1.6.8.3 2.3-.7 3.8-2.5 4.9-.1.1-.2.2-.2.3-.1 1.5-1.1 2.4-2.1 3.5-.3 1.5-.6 3.1-1.6 4.4-.4.4-.6 1-.8 1.6q-1.1 3.3-2.7 6.4c-.1.4-.4.7-.4 1-.1 2.9-1.5 5.5-1.9 8.3-.4 2.6-.7 5.3-1.1 8-.2 1.1-.5 2.1-.9 3.2-.4 1.4-.6 2.8-.3 4.1.7.5 1.1.2 1.5-.1.6-.6 1.3-1.2 1.8-1.9 1.9-2.7 4.5-4.8 7-7 5.4-4.8 10.8-9.6 16.3-14.3 2.7-2.3 5.6-4.5 8.4-6.7 2.3-1.9 4.4-3.9 5.3-6.9 0-.3-.3-.7-.2-1 .7-2.2.3-4.6 1.1-6.9.4-1.3.3-2.9.5-4.3.6-3.9 1.1-7.8 1.8-11.6.2-1.3.7-2.6 1.1-4.1-.1-1.4-.3-2.9.1-4.5.7-2.6 1.2-5.2 2-7.7.7-2.2.8-4.6 1.2-6.9.2-1.1.3-2.2.7-3.2.7-2.1 1.2-4.2 1-6.6.4-.5.9-1.1 1.2-1.6.4-.1.7-.2.9-.2 2.3.5 4.8.7 6.6 2.2 1.6 1.4 3.5 2.1 5.1 3.6.6-.1 1.2-.3 2-.4.9.2 2.1.6 3.7 1.1.1-.2.4-.6.7-1.1 1.6.3 1.6.3 3.5-.2.4.3.9.6 1.4.9 1.9-.5 3.6.5 5.3.7.8.1 1.5.8 2.2 1.2.9 3.5.2 6.7-.7 9.9l-2.6 8.4c-.3 1.2-.6 2.4-1 3.8q-.4.3-1.5 1.2c-.3 1.8-1.5 3.5-2.6 5.2-.5.6-.7 1.3-.8 2-.5 2-.8 4-2.1 5.7V96c-.6 2.7-2 5-2.5 7.7-1 5.2-2.3 10.2-3.5 15.4-.6 3.1-1.1 6.2-1.8 9.3-.8 3.5-1.1 7-1.8 10.5-.1.5-.2 1.2.6 1.6.6-.7 1.3-1.4 2-2 .6-.6 1.3-1.1 1.9-1.6 1-1 2.1-1.8 2.9-2.9q1.8-2.6 4.3-4.5c0-.4 0-.8-.1-1.1-.1-.2-.4-.3-.6-.4-.2 0-.5 0-.6.1q-1.5 1.1-2.9 2.3c-.8.6-1.1 2-2.5 2q-1.4 1.4-2.7 2.8c-.3-.1-.5-.2-.7-.4.1-.3.1-.7.3-.9 1.8-1.9 3.6-3.7 5.5-5.5 3.4-3.1 6-6.7 8.9-10.2 1-1.2 1.9-2.6 3.3-3.4.8 1.3-.7 2.3-.4 3.4 1.4-.4 2-1.6 2.8-2.3.5-1.4-.3-2-1.2-2.6 1-1.9 3.1-2.1 4.8-3.1-.1-.6-.2-1.2-.3-1.7.4-1.2 1.6-1.1 2.6-1.4q.3-.9.6-2.1c.9-.5 1.9-1 2.7-1.4 3.5-.4 6.8 0 10 1 .1.4.1.8.1 1.1l-.4.4.4.4c.3 1-.5 1.5-1.2 2.1-1.6 1.4-3.3 2.9-5 4.3-2.3 1.8-4.4 3.8-6.5 6-1.3 1.4-2.7 2.8-3.8 4.4-1.4 2-3.3 3.5-4.8 5.5-.8 1.1-2.1 2-3.3 2.8-2.1 1.2-3.7 2.8-4.9 4.8-1.1 1.7-2.5 3.1-3.7 4.6q-.7 1-1.5 1.8c.9 1.1 1.6 2.2 2.7 2.9.9 2.9 3.5 4.4 5.4 6.4.4.5.8 1 1.1 1.5q2.3 3.6 5.5 6.4c.6.6 1 1.4 1.6 2 1.1 1.2 2.1 2.2 3.6 2.8q.5-.5 1-1.2c2.2-1 3.5-3.1 5.5-4.4 0-1.3.1-2.5.1-3.6.2.1.4.1.8.2.3.6.5 1.2.8 2 .6-.5 1-1 1.4-1.6 1.2-1.7 2.7-3.2 4.3-4.5l2-2q.5 0 .8.1c.7-1.2 1.4-2.5 2.3-3.4 3.4-3.5 4.9-7.8 5.5-12.6 0-.6.2-1.2.4-1.7.6-1.9 1.4-3.7 1.1-5.8 0-.4.3-.9.5-1.3.5-2.3 1.2-4.5 1.6-6.8.7-3.4 1.4-6.7 3.3-9.7.5-.8.6-1.8.9-2.7q2.1-2.2 4.1-4.2c3.3-.2 6.5-.5 9.6.3 1.2.3 2.5.2 3.7.2 1.9 0 3.7.5 5.3 1.3 2.4 1.2 4.8 1.9 7.2 2.7 1.8 1.5.7 4.3 3 5.7 1.7 0 3.7-.2 5.6 0 1.6.2 3.2.5 4.7.9 2.4.6 4.8.6 7.2 1.1 1.9.4 3.8.5 5.7 1.2 1.8.6 3.8 1 5.8 1.1 2.2.2 4.3.8 6.4 1.5 1.4.5 2.6 1.3 3.5 2.7-1.2 2.7-2.6 5.2-4.4 7.6-.5.6-1 1.4-1.3 2.2-.4.8-1 1.3-1.9 1.8-.1 2.4-2.2 4.1-2.6 6.6-.4 2.4-1.2 4.7-1.6 7.2-.3 2.4-.6 4.8-.5 7.6.9-.5 1.4-.6 1.6-1 1.4-1.7 2.8-3.4 4.1-5.2.4-.5.8-1 1.2-1.4 1.8-1.7 3.2-3.8 4.8-5.6 3-3.6 6.1-7.1 9.2-10.6 1.7-1.9 3.4-3.9 5.1-5.9.8-1 1.7-2.1 2.8-2.9 1.9-1.3 2.6-3 4.6-4.9v-3.5c-1-1.8-2-3.1-3.3-4.3-.6-1.4.1-2.3.3-3.4.1-.9 0-1.9 0-2.6.5-1.1 1.2-1.4 2-1.4 1.4 0 3-.2 4.4.1 3.6.9 7.2 1.4 10.8 2 3.7.6 7.4 1.8 11 2.7 2.4.7 4.8 1.1 7 2.4.3.4.6.9.9 1.3.3 2.5-.4 4.5-1.5 6.5-.9 1.8-1.7 3.8-2.4 5.5-.7.5-1.2.9-1.9 1.3-.1.9-.5 2-.5 3.1.1.7.1 1.3 0 2.1q-1 3.9-1.8 7.9c-.1.8-.1 1.7 0 2.5 0 2.5-.8 4.9-.9 7.3-.9 1.5-.4 3.1-.3 4.7.5-.1 1 0 1.2-.2.9-.8 2-1.4 2.7-2.5.5-.9 1.2-1.8 1.9-2.6 1.6-1.8 3.4-3.4 4.7-5.2 1.3-1.9 2.9-3.4 4.4-4.9 2.5-2.5 5.2-4.6 7.4-7.2.8-1.1 1.7-2.1 3-2.7 1.8-2.4 4.8-3.8 6.2-7.1.2-1 .5-2.3.8-3.8-.8-1.9-.8-4.1-.8-6.3 0-1.7 0-3.5.1-5.2 0-1.9.2-3.9.6-5.8.9-4.2 1.3-8.5 2.3-12.7.2-.9.1-1.9.2-2.9.3-3.2.6-6.4 2-9.3.3-3-.6-6.3 2.6-8.5 1.1.2 2.3.3 3.5.5 1.1.2 2.2.5 3.2.7q.2.1.4.1c3.5-.4 6.7 1.3 10.1 1.8.5 0 .9.2 1.4.4 2.3 1.1 4.8 1.6 7.4 2.4.5.7 1.1 1.5 1.7 2.3-1.5 2.1-2.9 4-4.4 6 .5 2.1-.6 3.8-1.2 5.4-.4 5.8-2 11-3.3 16.4l-1.2 1.8c.7 3.8-1.2 7.4-.9 11.2.3 3.8-.1 7.7-.2 11.5 0 1 .1 2 0 2.9-.1.5-.3 1-.5 1.4.6 3.2.7 6.3.2 9.5-.5 2.9-.4 5.9-.2 8.8 1.4.3 2.2-.4 2.8-1.1 3.5-4.1 6.9-8.3 10.5-12.3 2.2-2.5 4.6-4.7 7.3-7.4 1.2-2.9 2.7-6.1 4.1-9.4l1.6-1.4c.5-1.7.9-3.4 2.5-4.4.2.3.4.6.7.6.8.2 1.7.3 2.9.5.6-.2 1.7-.5 2.8-.8.4.3.9.6 1.6 1.1 1-.4 2.1-.9 3.2-1.4 1.9 0 3.7 0 5.6.1 1.8.1 3.6.4 5.5.6.6-.3 1.2-1.3 1.9-1.3h3.2c1.2 1 2.3 1.2 3.9 2 .6.9 1.4 2.2 2.2 3.4 1.6.7 3.3 1.4 4.9 2.1 1.6 2.4 1.7 5.1 2.2 7.7zM350.8 119q.7 0 .6-.7c-.4 0-.6.3-.6.7zm-.7.7q.6 0 .6-.6-.6 0-.6.6zm-.8.8c.5 0 .6-.2.7-.7-.5.1-.7.2-.7.7zm-1.4 1.3c.9-.1 1.3-.5 1.3-1.2-.4.1-.8.1-1.1.4-.2.1-.1.5-.2.8zm-8-26q.4.4.7.8.6-.3 1.2-.5c-.4-1.1-1.1-.9-1.9-.3zM229.6 19.1l.2.1V19zm-38.3 138.5c-.1-.9-.2-1.6-.3-2.4-.5.8-.4 1.4.3 2.4zm.5-12.4-.4-.2c.1.2.1.5.4.2zm.2 2.9.1-.2h-.2zm.3 1.1h-.2l.1.2zm.9-14v-.8h-.2v.8h.2zm22.9 57.3q.2.1.4.1c-.1-.2-.1-.4-.4-.1zM204.5 18q.2-.1.3-.2-.1-.1-.3-.2v.4zm-1.5 4.8q-.6 1.8-1.2 3.8.3 0 .9.1c.7-1.1 1.4-2.3 2-3.4.2-.4.1-.8.2-1.2-.9-.3-1.3.5-1.9.7zm.9-4.1c.3-.1.5-.2.5-.6-.4 0-.5.2-.5.6zm-6.1 9.7c.5.5 1 .4 1.2 0q1.2-2 2.4-3.9c.5-.7.7-1.5 1.6-1.8.2-.5.3-1.1.6-1.6.5-.7.5-1.5.2-2.3-1 .5-1.4 1.4-1.9 2.2-.6 1-1 2-2.1 2.4.1.6.1 1.1-.3 1.5-.9 1-1.2 2.3-1.7 3.5zm13.8-3.6q-.3-.3-.7-.6-.8.6-1.4 1.1 0-.5.1-1.1c0-.5.7-.7.1-1.6-1.3.7-1.9 2.2-2.8 2.5-1 1.4-1.7 2.5-2.5 3.4-.7.9-1.4 1.8-2.3 2.6-.7.6-.6 1.5-.8 2-1.3.9-2.4 1.7-3.5 2.4-1.3 1.1-2.7 2.3-3.4 3.9-.5 1.3-1.3 2.1-2.5 2.7-1 .6-1.8 1.4-2.2 2.5.1.5.2.9.3 1.4-1.5 1.8-3.2 3.5-3.8 6-.1.1-.2.3-.3.5-1.8 1.5-2.8 3.7-3.9 5.7-1.1 1.8-2.3 3.5-3.4 5.3-1.5 2.3-2.9 4.6-4.3 6.9-.7 1.2-1.4 2.4-1.9 3.7-1.4 2.8-2.7 5.7-4.1 8.6-.3.7-.6 1.4-1.1 1.9-1.2 1.5-1.9 3.2-2.7 5-.8 1.7-1.5 3.5-2.5 5.1-1 1.8-1.8 3.8-1.5 6.3 1.6 1.2 3.4 1.9 5 3.1h1.4c.6-.1 1.1-.2 2-.3.3-.4.8-1 1.1-1.6.9-2 2.2-3.6 3.2-5.5 2-3.7 3.4-7.7 5.8-11.2q.1-.1.1-.3c1.9-5.1 4.3-9.9 7.3-14.3.5-.7.8-1.5 1.1-2.3.4-1.3 1.1-2.3 1.8-3.3 0-1.7 1.7-2.1 2.3-3.3.7-1.7 1.4-3.5 2.3-5.2.5-1.1 1.4-2.1 2-3.2.7-1.4 1.5-2.7 2.6-3.9.8-.8 1.4-1.8 1.7-3 .3-1.3 1-2.6 1.7-3.7 1.9-2.8 3.8-5.5 5.7-8.3q1.3-1.8 2.3-3.8c.3-.7.3-1.5.5-2.2q.2-.9.5-1.9c.2-.7.9-1.1.7-2zm-.8 175.5-1.4 1.4v.3c.1.2.3.3.5.6 1-.6 1.4-1.2.9-2.3zM197.5 35.2q.1.1.3.2 0-.1-.1-.2h-.2zm19.1 131.4c-.3.3-.8.4-.5.9.7.1.9-.2.5-.9zm.4-2.6-.2-.1v.2zm.6-1.8c0-.1-.1-.2-.2-.2q0 .3-.1.7h.2c0-.1.1-.3.1-.5zm22.6-44.3-.2-.2c-.2 0-.4.1-.6.2l.2.2.6-.2zm5.8-3.9c0 .5-.8.5-.3 1.4.3-.5.9-.6.3-1.4zm70.7 42c-1.2.3-1.2.3-.9 1.5.4-.6.6-1 .9-1.5zm1.4-.3c-.9-.7-1.2-.4-1.3.2.4-.1.7-.1 1.3-.2zm8.7-8.9q-.4-.5-.6-1.2c1.1-.6 2.2-1.2 3.3-1.9l.4-.8c.7-6 1.4-11.5 2.1-17-.6-1-1.2-1.3-2.2-.7-.7 1-1.2 2-1.3 3.3-.3 1.9-.8 3.8-1.2 5.7-.3 1.3-.7 2.6-1 3.9-.5 2.2-1.3 4.4-1.6 6.7-.1.8-.7 1.6-1.1 2.3-.2.6-.7 1-.9 1.6-.1.4.1.9.2 1.6.8-.6 1.5-.9 2-1.4.6-.6 1.2-1.4 1.9-2.1zm91.3-26.7c0-.2.1-.5.1-.7-.4-.1-1.1-.2-1.1-.3v-2.9c-2-1.3-4.1-2.5-6-3.8-.4 0-1 .1-1.5.2-.4 1.2-.8 2.2-1 3.2-1 4.8-1.9 9.6-2.5 14.5-.3 2.3-.3 4.7-1.3 6.8-.2.4 0 .9 0 1.6.2-.2 13.3-18.6 13.3-18.6zm141.9 30c-.4-1.1-1.1-2.1-2.3-2.6-.2-.1-.4-.1-.7-.2q-.5.2-.9.5c-.6.9-1.2 1.8-1.8 2.8-.5.9-.8 2-.9 3.1-.2 1.2-.7 2.3-.6 3.5.1 1 .7 1.9.8 3.2 1.9-2.4 3.8-4.7 5.6-7.2.6-.8 1.1-1.9.8-3.1zm57.1-23c-.1-1.1-.3-2.2-1.5-2.8-.4.2-.8.4-1.3.7-.1 2.1-.3 4.1-1.5 6-.6.8-1 1.9-.8 3.1.1.6 0 1.2-.2 1.8-.4 1.8-.7 3.7-1.4 5.3-.8 1.7-1.3 3.4-1.9 5.1-.2.4-.5.8-.8 1.3 1 2-.5 4 0 6.1 2.5-.9 4-2.1 5.2-4 1.7-2.6 2.6-5.5 3.4-8.5 1.2-4.6 1.5-9.3.8-14.1z"/><path class="s0" d="M489.7 87.5c1.4-.2 2.4.4 3.6.6.7.1 1.4.5 2.1.5 2.4 0 4.6.6 6.8 1.4 1 .3 1.9 0 2.4-1.3-.1-.9-.2-2-.4-3.6 1.2-3.9 2.3-9.8 2.7-13.6 1.2-1.7 1.5-3.7 1.4-5.7q.7-.8 1.2-1.4c-.2-1.1-.4-2.2-.6-3.2.9-.8 1.6-1.4 2.3-2.1-2.5-3.7-6-5.3-10.2-5.9-.9-.2-1.9-.4-2.9-.6-1 .3-2 .6-2.9.9-.4 2 0 3.6.3 4.9-.3 1.5-.3 2.6-.7 3.6-1.8 4.3-2.7 8.9-4.1 13.3.2 1.6-1.3 2.7-1.4 4.1-.2 2.4-1.1 4.5-2.4 6.5.8 1.1 1.7 1.8 2.8 1.6z"/><path fill-rule="evenodd" class="s0" d="M264.7 76.7c1.2-4.3 2.3-8.7 3.6-13 .8-2.3 1.2-4.7 2.2-6.9.5-1.1.6-2.4.9-3.6-.3-.9-.9-1.9-.2-3.3 1-1.2 2.6-1.4 4.2-1.2 3.7.5 7.5 1.1 11 2.8q1 1.4 2.1 2.9c-.5 1.7-2.2 1.3-3.3 2.2 1 2.3 0 4.5-.6 6.7-.9 3.3-1.8 6.5-2.8 9.8-.9 2.7-1.2 5.7-1.8 8.9-.1.1-.5.4-1 .8q-.4.9-.7 1.9c-.7.1-1.2.1-1.6.2-.5-.5-.9-.9-1.5-1.4q-1.1.3-2.3.6c-1.6 0-2.7-1.2-4-1.8-.4.3-.8.5-1.3.9-.7-.3-1.5-.6-2.2-.8-.1-.1-.3-.2-.3-.3-.1-1.8-.9-3.5-.4-5.4zm13.8 5c-.2.6 0 .9.4 1 0-.4.2-.8-.4-1zm-5.9-28.1q.3.1.6.3c.1 0 .2-.2.3-.3l-.8-.2q-.1.1-.1.2zm-.2 16.6c.1.3.5.4.9.7.4-1.1.7-2.2 1.1-3.1 1.3-2.5 2.4-5.2 3.1-7.9.4-1.4.7-2.9 1.2-4.5-.5-.5-1.1-.8-1.6-1.8h-2c-.1 1 .1 1.8-.2 2.3-.6.8.1 1.8 0 2.7-.6 2.8-1.2 5.7-2.1 8.4-.4 1.1-.5 2.2-.4 3.2zm-1.6 5.1c.1.6.5 1.2.7 1.7.1.1.5.1.5.1v-2.6c0-.2-.4-.3-.9-.6-.1.6-.3 1-.3 1.4z"/><path class="s0" d="M20.4 141.7h.8v-.2h-.8v.2zm411.9 61v-.2l-.2.1zm-67-47.1h.1v-.1zm8.4-49.1-.1-.1v.1h.1v-.1h-.1zm-.1-.7h.1v-.1h-.1v.1zm.6.3q-.2-.1-.5-.3v.6q.3-.1.5-.3zm218.6 3.2q-.1.1-.2.1 0 .1-.1.2.1-.1.2-.1.1-.1.1-.2zm.3-.2q-.2.1-.3.2h.1c.1 0 .1-.1.2-.2zm-.6.5q-.2.2-.4.5.3-.1.4-.5zm-.4.5h-.3l.1.1q.1-.1.2-.1zm-52.3-21.7-.1-.2-.1.2zm-510.9 61 .1-.1h-.1v.1zm-.4-.3.4.2c0-.2 0-.6-.4-.2zm114.1-61.2h.1v-.1h-.1v.1zm-1.7 4.2c-.2.2-.2.6-.2.9q-.3 2.1-.5 4.2v.2c.3 1.2.5 1.9.7 2.7-.4.4-.7.6-1 .9.7.9.3 1.8.2 2.6 0 .4.2.9.9.8.2-.5.5-1.1.6-1.7.4-3 .6-6 1.1-9 .3-1.9.2-3.8-.1-5.8-.3.1-.7.2-1.2.4.3 1.4.3 2.7-.5 3.8zm-2.9 31.3c.7-2.6.3-5.5 1.2-8 .1-.6-.1-1.3-.3-2 0-.2-.3-.5-.5-.7-.3.2-.5.3-.6.5-.9 2.5-1.5 5.1-1.1 7.9.1 1 0 2-.2 2.9 1 .9 0 1.8.3 2.7.3 0 .6-.1.9-.1.1-1.1 0-2.2.3-3.2zm5.5-39.4c.2-1.4 1.5-2.3 1.2-4-.4-.1-.8-.1-1.1-.1-.6.8-1 1.5-.9 2.5.1.8 0 1.7-.2 2.6-.1.9.1 1.9.2 2.8.1 0 .2 0 .2-.1.5-1.1.5-2.5.6-3.7zm2.7-9.4q-.4-1-.8-2.1-.4 0-1-.1-.3.7-.7 1.3c.2.6.5 1.1.6 1.6.1.5-.5.9.1 1.5 1.1-.2 1.6-1.1 1.8-2.2zm-16.7 75.9c0-.4-.1-.9-.2-1.7-.5 1.6-.8 2.8-1.1 3.9.2.3.3.6.5.9.1 0 .2 0 .2-.1.5-.9.4-2 .6-3zM136.8 126.8v-.1q-.1 0-.1.1h.1zm-.5.3c0 .7.1 1.5.2 3 .5-1.3.7-1.8.9-2.3-.3-.4-.5-.7-.6-1-.2.1-.5.2-.5.3zm9.2-54.7h-.1v.1h.1v-.1zm.6-1.1c-.6-.2-.7 0-.7.6q0 .2.1.5c.3-.3.7-.5.6-1.1zm-13.4 59.3h.3q-.1-.7-.2-1.5h-.2q0 .8.1 1.5zm7.7-25c.1.1.3.2.4.2.1 0 .2-.1.3-.2-.2-.1-.3-.2-.5-.2-.1 0-.2.1-.2.2zm-11.8 49v-.9c-.4.1-.5.4 0 .9zm0-.9h.1v-.1h-.1v.1zm1.2-9.2.1.2.1-.2zm.3-1.7q-.1 0-.1.1c-.1.1-.2.2-.2.3.1 0 .2-.1.3-.2v-.2zm.2-.4-.2.4c.3 0 .6.1.2-.4zm1-3.3-.2.1.2.1zm-80.9 19.7q-.1.1-.1.2.1-.1.2-.1c0-.1.1-.2.1-.2-.1 0-.1.1-.2.1zm-.3.4.2-.2h-.1c-.1 0-.1.1-.1.2zm.5-.5zm0 0zm86.2-28.1s-.2.1-.3.2l.1.1c.1-.2.2-.3.2-.3zm-2.6-7.9c-.1.2-.2.3-.2.3s.2-.1.3-.2q.1-.2.1-.3l-.2.2zm-53.3-24q-.5.1-.5.5.4-.1.5-.5zm-.5.6v-.1h-.1zm.5-.7v.1q0-.1.1-.1zm48.8 47.7c-.2 0-.6 0-.1.5q0-.3.1-.5zm.4-.4q-.1.1-.2.3.1 0 .1-.1c.1 0 0-.1.1-.2zm-.2.3h-.2v.1h.1l.1-.1zm69.8-104.3c.1 0 .5.2.5.1.1-.2.1-.5.2-.9-.2.2-.4.2-.4.3q-.2.2-.3.5zm-3.6 7.2q-.5.6-.9 1.1c.9-.1.9-.2.9-1.1zm4.6-9.8c.5.2.8.1.9-.4-.4.1-.8-.1-.9.4zm.9-.4h.1v-.1h-.1v.1zm-6.7 11.5q.1 0 .2-.1l.1-.1h-.3v.2zm-.1.3q.1-.1.1-.3c-.2 0-.4 0-.1.3zm1.3-1.8v.2l.1-.1q0-.1.1-.1h-.2zm.2 0c.2 0 .4 0 .1-.4q0 .2-.1.4zm5.4-10.1c.2 0 .5 0 .2-.4l-.2.4zm2.3-1.9h.1v-.1h-.1v.1zm-.2.5q.1-.2.2-.5c-.3 0-.5.1-.2.5zm.4-1q0 .2-.1.4c.3 0 .6 0 .1-.4z"/><path fill-rule="evenodd" class="s0" d="M60.7 82.9q-.8-1-1.5-2c.3-1.1 1.5-.9 2.2-1.5-.6-1.5 0-3 .5-4.5.6-2.2 1.2-4.5 1.9-6.7.6-1.8.7-3.8 1.2-6 .1-.1.3-.3.6-.5l.6-1.4c.4 0 .7 0 1-.1l1 1q.8-.2 1.6-.5c1.1.1 1.8.8 2.7 1.3q.4-.3.9-.6c.5.2 1 .3 1.5.5l.2.2c.1 1.2.6 2.4.3 3.7-.8 2.9-1.6 5.9-2.5 8.8-.5 1.6-.8 3.2-1.5 4.7-.3.8-.4 1.6-.6 2.4.2.7.6 1.4.1 2.3-.6.8-1.7 1-2.8.8-2.5-.3-5.1-.8-7.4-1.9zm5.2-2.6c.3.3.7.3 1.1 1.3h1.3c.1-1-.1-1.3.1-1.6.5-.6 0-1.3.1-1.9.3-1.9.7-3.9 1.4-5.7.2-.8.3-1.5.2-2.2 0-.2-.3-.3-.6-.5-.2.8-.4 1.5-.7 2.1-.9 1.7-1.6 3.5-2.1 5.3-.3.9-.5 2.1-.8 3.2zm4.1-13c0 .1.5.2.8.4.1-.4.3-.7.3-1-.1-.4-.4-.8-.6-1.1 0-.1-.5-.1-.5-.1v1.8zm0 14.2-.4-.2c-.1 0-.2.1-.2.1l.6.2v-.1zm-4.3-19.8c0 .3-.1.6.3.7.2-.4 0-.6-.3-.7zm-3.5 100c-.9-.2-1.7-.4-2.6-.6-.6.2-1.3.6-2 .7-.6.1-1.2 0-1.9 0q-1.4-.7-3-1.8c-.8-2.6-3.4-3.8-5.2-6q-.8.3-1.7.6c-1.1-.4-2.2-.8-3-2-.5-.7-1.4-1.2-2.3-1.7-.9-.6-1.9-1-3.1-1.5.6-1.4 1.2-2.6 1.8-3.8-.1-.7-.3-1.3-.4-2 0-.6.1-1.3.2-1.9 1.8-1.7 1.2-4.4 2.8-6.2 0-2.4 0-4.7 1.1-6.9.1-.2.3-.5.2-.7-.4-3.2 1-6.3.9-9.5-.1-3.3.3-6.5 1.3-9.7.1-.3.1-.7.1-1-.8-.2-1 .4-1.2.7-1.5 2.6-3.6 4.7-5.7 6.8-3.3 3.3-6.7 6.7-9.8 10.1-2.4 2.6-4.6 5.6-6.9 8.4-.5.5-1-.1-1.5 1.9h-1.2c-.1 0-.4-.1-.5.1-1.3 1.8-2.4 3.4-3.9 5q-.9 1.1-1.5 2.4.3-3.3.8-6.5.2-.2.4-.3 3.7-5.1 7.3-10.2c1.1-1.4 2.8-2.4 3.6-4.1 2.1-1.5 3.3-3.7 4.7-5.6 2.8-3.6 5.7-7.1 8.4-10.8 1.3-1.8 2.7-3.4 4.5-4.9.5.1.9.2 1.5.3.2-.9.4-1.9.7-2.9q-.4-.4-.9-1.2c.1-.3.3-.8.4-1.2 3.1-.9 5.9.1 8.7.9l.8.8c2.1-.6 4.3-.7 6.4.1.8.3 1.8 0 2.6.3 1.9.8 4 .5 6 1.5 1.7.9 3.8 1 5.6 1.6.6.1 1.1.5 1.7.8.2 2.3-.7 3.8-2.6 4.9 0 .1-.2.2-.2.3-.1 1.5-1.1 2.4-2.1 3.5-.2 1.5-.5 3.1-1.6 4.4-.3.4-.6 1-.8 1.6q-1 3.3-2.6 6.4c-.2.4-.4.7-.5 1 0 2.9-1.5 5.5-1.9 8.3-.3 2.6-.6 5.3-1.1 8-.1 1.1-.5 2.1-.8 3.2-.5 1.4-.6 2.8-.3 4.1.7.5 1.1.2 1.5-.1.6-.6 1.3-1.2 1.7-1.9 2-2.7 4.6-4.8 7.1-7 5.4-4.8 10.9-9.6 16.3-14.3.2-.1.5-.2.5-.3v3.1c-2 1.3-3 2.6-4.5 4-2.9 2.7-5.8 5.4-8.6 8.2-1.4 1.5-2.9 2.9-4.1 4.7-.9 1.4-2.4 2.4-3.9 4-1.4 2.4-2.5 5.5-4.1 8.4.3.5.5.9.8 1.6q-1 1.8-2.4 3.9zM31 118c-.1-.1-.2-.3-.2-.3-.2.1-.4.2-.6.2q.1.2.2.3l.6-.2zm5.8-4c0 .5-.8.5-.3 1.4.3-.5.9-.5.3-1.4z"/></g></g></svg>